<svg xmlns="http://www.w3.org/2000/svg" width="300.11902mm" height="300.12091mm" viewBox="0 0 300.11902 300.12091"><g style="stroke-width:.187465"><g style="stroke-width:.187465"><path d="M0 0v-2.902h-10.898v-26.179H0v-2.902l-16.699-9.072a.58.58 0 0 0-.866.504V8.567a.58.58 0 0 0 .866.504z" style="fill:#24b8f1;fill-opacity:1;fill-rule:nonzero;stroke:none;stroke-width:.187465" transform="matrix(1.88184 0 0 -1.88184 92.49 119.966)"/></g><g style="stroke-width:.187465"><path d="M0 0v2.902h-4.379v26.179H0v2.902l-8.273 5.779a.58.58 0 0 1-.935-.459V-5.32a.58.58 0 0 1 .935-.459z" style="fill:#1c63b7;fill-opacity:1;fill-rule:nonzero;stroke:none;stroke-width:.187465" transform="matrix(1.88184 0 0 -1.88184 133.02 180.154)"/></g><g style="stroke-width:.187465"><path d="M0 0v-2.902h10.898v-26.179H0v-2.902l16.699-9.072a.58.58 0 0 1 .866.504V8.567a.58.58 0 0 1-.866.504z" style="fill:#24b8f1;fill-opacity:1;fill-rule:nonzero;stroke:none;stroke-width:.187465" transform="matrix(1.88184 0 0 -1.88184 207.629 119.966)"/></g><g style="stroke-width:.187465"><path d="M0 0v2.902h4.379v26.179H0v2.902l8.273 5.779a.58.58 0 0 0 .935-.459V-5.32a.58.58 0 0 0-.935-.459z" style="fill:#1c63b7;fill-opacity:1;fill-rule:nonzero;stroke:none;stroke-width:.187465" transform="matrix(1.88184 0 0 -1.88184 167.1 180.154)"/></g><g style="stroke-width:.187465"><path d="M0 0c-44.04 0-79.741-35.701-79.741-79.741S-44.04-159.483 0-159.483s79.741 35.702 79.741 79.742S44.04 0 0 0m58.662-79.741c0-32.398-26.264-58.662-58.662-58.662s-58.662 26.264-58.662 58.662S-32.398-21.08 0-21.08s58.662-26.263 58.662-58.661" style="fill:#1c63b7;fill-opacity:1;fill-rule:nonzero;stroke:none;stroke-width:.187465" transform="matrix(1.88184 0 0 -1.88184 150.06 0)"/></g><g style="stroke-width:.187465"><path d="M0 0a4.6 4.6 0 0 0 .554-1.71 4 4 0 0 0-.148-1.623 4 4 0 0 0-.774-1.411 4.5 4.5 0 0 0-1.34-1.075l-.021-.012a4.4 4.4 0 0 0-1.601-.505 4.2 4.2 0 0 0-1.629.13 4.3 4.3 0 0 0-1.467.755A4.3 4.3 0 0 0-7.55-4.096q-.26.48-.403.908a4.6 4.6 0 0 0-.199.83 4 4 0 0 0-.034.797q.022.397.11.808l1.41-.289a5 5 0 0 1-.092-.603 3 3 0 0 1 .003-.591q.032-.294.129-.612t.284-.662q.27-.501.714-.821t.966-.449a3.08 3.08 0 0 1 2.183.298l.021.011q.565.304.95.742.386.437.553.952A2.72 2.72 0 0 1-1.184-.58a3.5 3.5 0 0 1-.678.891q-.397.37-.828.567L-4.065.135l1.009-1.868-1.116-.604-1.682 3.11 3.069 1.659a6 6 0 0 0 .763-.363 5.3 5.3 0 0 0 .749-.512A5.2 5.2 0 0 0 0 0" style="fill:#fff;fill-opacity:1;fill-rule:nonzero;stroke:none;stroke-width:.187465" transform="matrix(1.88184 0 0 -1.88184 43.76 206.665)"/></g><g style="stroke-width:.187465"><path d="m0 0-3.63-4.796-.578 1.621L-1.524.25l-4.253.977-.562 1.576 5.812-1.429 3.118 1.111.493-1.385Z" style="fill:#fff;fill-opacity:1;fill-rule:nonzero;stroke:none;stroke-width:.187465" transform="matrix(1.88184 0 0 -1.88184 31.024 193.97)"/></g><g style="stroke-width:.187465"><path d="m0 0-1.173 6.032 1.293.252.897-4.612 2.095.408-.795 4.087 1.293.251.795-4.087 2.178.423-.908 4.67 1.293.251 1.183-6.09Z" style="fill:#fff;fill-opacity:1;fill-rule:nonzero;stroke:none;stroke-width:.187465" transform="matrix(1.88184 0 0 -1.88184 17.311 181.581)"/></g><g style="stroke-width:.187465"><path d="M0 0a2.7 2.7 0 0 1-.271 1.12 2.7 2.7 0 0 1-.659.857 2.9 2.9 0 0 1-.951.54q-.54.188-1.144.167h-.025a3.2 3.2 0 0 1-1.137-.247 2.85 2.85 0 0 1-.916-.611 2.8 2.8 0 0 1-.603-.914 2.7 2.7 0 0 1-.198-1.141q.021-.615.27-1.12a2.7 2.7 0 0 1 .659-.858q.41-.351.952-.54.54-.187 1.145-.167l.024.001q.605.022 1.136.247.533.225.917.611.384.385.603.913T0 0m1.34.023a4.4 4.4 0 0 0-.277-1.766 4.2 4.2 0 0 0-.871-1.396 4.2 4.2 0 0 0-1.327-.936 4.3 4.3 0 0 0-1.642-.378l-.024-.001a4.3 4.3 0 0 0-1.665.263q-.788.293-1.394.853a4.3 4.3 0 0 0-.98 1.343 4.4 4.4 0 0 0-.404 1.743q-.034.96.276 1.766t.871 1.396 1.327.936q.765.348 1.643.378l.023.001a4.3 4.3 0 0 0 1.666-.263q.788-.293 1.395-.853.606-.561.979-1.343A4.4 4.4 0 0 0 1.34.023" style="fill:#fff;fill-opacity:1;fill-rule:nonzero;stroke:none;stroke-width:.187465" transform="matrix(1.88184 0 0 -1.88184 27.207 154.395)"/></g><g style="stroke-width:.187465"><path d="m0 0 .183 1.337 6.291 3.621-5.69.778.196 1.433 8.228-1.125-.165-1.208L2.57 1.109l5.854-.8-.196-1.434Z" style="fill:#fff;fill-opacity:1;fill-rule:nonzero;stroke:none;stroke-width:.187465" transform="matrix(1.88184 0 0 -1.88184 14.097 138.188)"/></g><g style="stroke-width:.187465"><path d="M0 0a4.6 4.6 0 0 0-.839-1.589 4 4 0 0 0-1.265-1.028 4 4 0 0 0-1.551-.428 4.5 4.5 0 0 0-1.706.21l-.023.007a4.4 4.4 0 0 0-1.479.794A4.2 4.2 0 0 0-8.388.802 4.3 4.3 0 0 0-8.2 2.553q.162.52.369.922t.455.721q.25.32.549.581.298.26.654.485l.777-1.213a6 6 0 0 1-.496-.354 3.1 3.1 0 0 1-.77-.934 3.6 3.6 0 0 1-.276-.665 2.4 2.4 0 0 1-.091-1.085q.08-.54.352-1.005.273-.464.721-.821a3.1 3.1 0 0 1 1.016-.536l.022-.007a3.4 3.4 0 0 1 1.194-.163q.583.03 1.069.268.485.238.854.662.37.425.56 1.034.177.565.166 1.108a3.1 3.1 0 0 1-.172.989l-1.491.467L-3.372.98l-1.212.379 1.056 3.374L-.2 3.692q.157-.373.272-.799a5.116 5.116 0 0 0 .144-1.866A5.3 5.3 0 0 0 0 0" style="fill:#fff;fill-opacity:1;fill-rule:nonzero;stroke:none;stroke-width:.187465" transform="matrix(1.88184 0 0 -1.88184 35.319 113.439)"/></g><g style="stroke-width:.187465"><path d="M0 0a4.3 4.3 0 0 0-1.057-1.032 2.94 2.94 0 0 0-1.223-.48 3.1 3.1 0 0 0-1.343.113q-.696.208-1.419.747l-3.834 2.856.864 1.16 3.787-2.82q.932-.695 1.752-.606.82.087 1.412.882.584.785.454 1.581-.132.797-1.054 1.485l-3.834 2.856.864 1.16 3.777-2.813q.742-.553 1.151-1.176.408-.622.509-1.273.1-.65-.109-1.318A4.4 4.4 0 0 0 0 0" style="fill:#fff;fill-opacity:1;fill-rule:nonzero;stroke:none;stroke-width:.187465" transform="matrix(1.88184 0 0 -1.88184 53.4 78.213)"/></g><g style="stroke-width:.187465"><path d="m0 0 1.039 1.007 2.906-2.998-.069 5.748 1.286 1.246.007-4.966 5.884-.89-1.27-1.23-4.637.71-.003-1.854 1.675-1.729-1.039-1.007Z" style="fill:#fff;fill-opacity:1;fill-rule:nonzero;stroke:none;stroke-width:.187465" transform="matrix(1.88184 0 0 -1.88184 50.837 56.409)"/></g><g style="stroke-width:.187465"><path d="m0 0 .658 1.289L4.377-.609 2.454 4.808l.814 1.595L4.88 1.705l5.855 1.061-.804-1.575L5.314.365l.595-1.756 2.145-1.095-.658-1.289Z" style="fill:#fff;fill-opacity:1;fill-rule:nonzero;stroke:none;stroke-width:.187465" transform="matrix(1.88184 0 0 -1.88184 26.2 92.683)"/></g><g style="stroke-width:.187465"><path d="m0 0 1.174.667 6.694-2.803-2.833 4.993 1.258.715 4.1-7.222-1.062-.602-6.89 2.882 2.916-5.138-1.258-.714Z" style="fill:#fff;fill-opacity:1;fill-rule:nonzero;stroke:none;stroke-width:.187465" transform="matrix(1.88184 0 0 -1.88184 76.953 34.804)"/></g><g style="stroke-width:.187465"><path d="m0 0-2.474 2.641-.216-3.607Zm-3.678 4.062 1.274.457 6.265-6.636-1.451-.522L.939-1.037l-3.695-1.327-.126-2.176-1.407-.505Z" style="fill:#fff;fill-opacity:1;fill-rule:nonzero;stroke:none;stroke-width:.187465" transform="matrix(1.88184 0 0 -1.88184 109.666 29.717)"/></g><g style="stroke-width:.187465"><path d="m0 0-2.579-.534-.275 1.325 6.599 1.366L4.02.833 1.44.298l1.411-6.807-1.441-.298Z" style="fill:#fff;fill-opacity:1;fill-rule:nonzero;stroke:none;stroke-width:.187465" transform="matrix(1.88184 0 0 -1.88184 121.457 19.364)"/></g><g style="stroke-width:.187465"><path d="m0 0 1.441.129.739-8.272-1.442-.128Z" style="fill:#fff;fill-opacity:1;fill-rule:nonzero;stroke:none;stroke-width:.187465" transform="matrix(1.88184 0 0 -1.88184 136.442 14.423)"/></g><g style="stroke-width:.187465"><path d="M0 0a2.7 2.7 0 0 1 2.043.773q.382.382.612.906.23.525.255 1.129l.001.024q.027.604-.158 1.152a2.8 2.8 0 0 1-.538.961 2.8 2.8 0 0 1-.863.673q-.51.26-1.123.285a2.7 2.7 0 0 1-2.043-.773 2.9 2.9 0 0 1-.613-.906 3.1 3.1 0 0 1-.255-1.129l-.002-.024a3.2 3.2 0 0 1 .159-1.153q.183-.548.538-.96.354-.414.864-.673A2.7 2.7 0 0 1 0 0m-.081-1.338a4.4 4.4 0 0 0-1.74.412q-.78.371-1.324.977a4.2 4.2 0 0 0-.831 1.395 4.3 4.3 0 0 0-.249 1.667l.001.024q.038.877.391 1.64t.959 1.324a4.3 4.3 0 0 0 1.414.872 4.4 4.4 0 0 0 1.77.269 4.45 4.45 0 0 0 1.739-.413 4.2 4.2 0 0 0 1.324-.977q.544-.606.831-1.395a4.3 4.3 0 0 0 .249-1.667l-.001-.024a4.3 4.3 0 0 0-.39-1.64 4.2 4.2 0 0 0-.959-1.324 4.4 4.4 0 0 0-1.416-.872 4.4 4.4 0 0 0-1.768-.268" style="fill:#fff;fill-opacity:1;fill-rule:nonzero;stroke:none;stroke-width:.187465" transform="matrix(1.88184 0 0 -1.88184 155.422 27.245)"/></g><g style="stroke-width:.187465"><path d="m0 0 1.317-.292 3.091-6.567 1.243 5.606 1.413-.314-1.797-8.107-1.191.264L.894-2.653-.386-8.42l-1.413.313Z" style="fill:#fff;fill-opacity:1;fill-rule:nonzero;stroke:none;stroke-width:.187465" transform="matrix(1.88184 0 0 -1.88184 173.044 15.517)"/></g><g style="stroke-width:.187465"><path d="m0 0-.065 3.618-2.58-2.532Zm-.007 5.479 1.251-.514.202-9.125-1.426.587-.018 2.174L-3.63.093l-1.552-1.53-1.382.568z" style="fill:#fff;fill-opacity:1;fill-rule:nonzero;stroke:none;stroke-width:.187465" transform="matrix(1.88184 0 0 -1.88184 200.705 33.66)"/></g><g style="stroke-width:.187465"><path d="m0 0 1.237-.751-3.626-5.973L1.344-8.99.66-10.115l-4.969 3.016Z" style="fill:#fff;fill-opacity:1;fill-rule:nonzero;stroke:none;stroke-width:.187465" transform="matrix(1.88184 0 0 -1.88184 216.517 30.93)"/></g><g style="stroke-width:.187465"><path d="M0 0q-.57.572-.867 1.196a2.95 2.95 0 0 0-.296 1.28q0 .654.308 1.313.307.657.945 1.294L3.474 8.46l1.022-1.024-3.342-3.335Q.331 3.279.299 2.456.266 1.631.966.93 1.657.238 2.465.251q.807.014 1.622.827l3.384 3.377L8.493 3.43 5.159.104q-.654-.655-1.331-.968a3.2 3.2 0 0 0-1.334-.317 2.9 2.9 0 0 0-1.287.299A4.5 4.5 0 0 0 0 0" style="fill:#fff;fill-opacity:1;fill-rule:nonzero;stroke:none;stroke-width:.187465" transform="matrix(1.88184 0 0 -1.88184 235.288 64.976)"/></g><g style="stroke-width:.187465"><path d="m0 0 .777-1.103-2.131-6.938L3.337-4.73l.834-1.183-6.785-4.787-.703.996 2.193 7.14-4.827-3.406-.835 1.183z" style="fill:#fff;fill-opacity:1;fill-rule:nonzero;stroke:none;stroke-width:.187465" transform="matrix(1.88184 0 0 -1.88184 257.58 66)"/></g><g style="stroke-width:.187465"><path d="m0 0 .671-1.282-7.357-3.853-.67 1.282z" style="fill:#fff;fill-opacity:1;fill-rule:nonzero;stroke:none;stroke-width:.187465" transform="matrix(1.88184 0 0 -1.88184 270.236 85.684)"/></g><g style="stroke-width:.187465"><path d="m0 0 .564-1.512-5.102-4.578 6.851-.1.552-1.478-9.043.307-.448 1.2z" style="fill:#fff;fill-opacity:1;fill-rule:nonzero;stroke:none;stroke-width:.187465" transform="matrix(1.88184 0 0 -1.88184 275.084 95.149)"/></g><g style="stroke-width:.187465"><path d="m0 0 1.223-6.022-1.291-.263-.935 4.604-2.092-.424.828-4.081-1.291-.262-.828 4.081-2.174-.442.947-4.662-1.291-.262-1.234 6.081z" style="fill:#fff;fill-opacity:1;fill-rule:nonzero;stroke:none;stroke-width:.187465" transform="matrix(1.88184 0 0 -1.88184 282.55 117.455)"/></g><g style="stroke-width:.187465"><path d="M0 0q.033-.785.429-1.232.394-.447 1.038-.419l.023.001q.678.03 1.011.496.331.468.295 1.288l-.093 2.128-2.797-.122Zm3.956 3.765L4.117.067a4 4 0 0 0-.159-1.396 2.8 2.8 0 0 0-.566-1.034 2.4 2.4 0 0 0-.772-.544 2.7 2.7 0 0 0-.988-.221l-.024-.001a2.7 2.7 0 0 0-.924.108 2.4 2.4 0 0 0-.742.377 2.5 2.5 0 0 0-.56.599q-.234.353-.372.785l-3.043-2.377-.075 1.719L-1.306.253l-.001.023-.079 1.807-2.891-.125-.063 1.445z" style="fill:#fff;fill-opacity:1;fill-rule:nonzero;stroke:none;stroke-width:.187465" transform="matrix(1.88184 0 0 -1.88184 278.524 145.068)"/></g><g style="stroke-width:.187465"><path d="M0 0q.104.955.524 1.792a5 5 0 0 0 1.174 1.507l.942-.986q-.585-.546-.929-1.128a3.4 3.4 0 0 1-.43-1.361q-.073-.673.166-1.098a.89.89 0 0 1 .712-.478l.024-.003a1 1 0 0 1 .403.034.85.85 0 0 1 .355.248q.177.19.345.536.17.347.362.912.227.646.478 1.138.25.493.565.811.316.32.738.458.42.14.986.077l.023-.002a2.25 2.25 0 0 0 1.642-.978q.273-.403.393-.94a3.5 3.5 0 0 0 .052-1.151 4.8 4.8 0 0 0-.444-1.604 4.9 4.9 0 0 0-.922-1.278l-1.011.899q.475.521.753 1.051.28.53.341 1.097.07.636-.174 1.021t-.657.43l-.023.003q-.237.026-.428-.037a.8.8 0 0 1-.363-.265 2.6 2.6 0 0 1-.344-.573q-.171-.37-.378-.946a9 9 0 0 0-.491-1.112 2.9 2.9 0 0 0-.581-.78 1.9 1.9 0 0 0-.728-.429 2.2 2.2 0 0 0-.909-.074l-.023.002a2.4 2.4 0 0 0-1.014.331 2.25 2.25 0 0 0-.713.687 2.7 2.7 0 0 0-.382.981Q-.072-.649 0 0" style="fill:#fff;fill-opacity:1;fill-rule:nonzero;stroke:none;stroke-width:.187465" transform="matrix(1.88184 0 0 -1.88184 269.753 163.678)"/></g><g style="stroke-width:.187465"><path d="m0 0-.326-1.41-8.09 1.874.326 1.41z" style="fill:#fff;fill-opacity:1;fill-rule:nonzero;stroke:none;stroke-width:.187465" transform="matrix(1.88184 0 0 -1.88184 283.159 179.595)"/></g><g style="stroke-width:.187465"><path d="m0 0 .889 2.479 1.272-.456L-.111-4.32l-1.274.456.889 2.479L-7.041.96l.496 1.385z" style="fill:#fff;fill-opacity:1;fill-rule:nonzero;stroke:none;stroke-width:.187465" transform="matrix(1.88184 0 0 -1.88184 276.477 193.883)"/></g><g style="stroke-width:.187465"><path d="m0 0 5.994.488-.823-1.51-4.342-.282 2.105-3.822-.801-1.469-2.807 5.286L-3.579.276l.704 1.291Z" style="fill:#fff;fill-opacity:1;fill-rule:nonzero;stroke:none;stroke-width:.187465" transform="matrix(1.88184 0 0 -1.88184 262.157 209.476)"/></g><g style="stroke-width:.187465"><path d="m0 0-4.394 2.136.351.722L.24.776l1.567 3.223-5.759 2.8-.631-1.299 4.282-2.081-.326-.672-4.282 2.082-1.581-3.252 5.87-2.853Z" style="fill:#fff;fill-opacity:1;fill-rule:nonzero;stroke:none;stroke-width:.187465" transform="matrix(1.88184 0 0 -1.88184 98.329 266.75)"/></g><g style="stroke-width:.187465"><path d="m0 0 1.487-.723 2.746 5.647-1.488.723Z" style="fill:#fff;fill-opacity:1;fill-rule:nonzero;stroke:none;stroke-width:.187465" transform="matrix(1.88184 0 0 -1.88184 99.355 270.617)"/></g><g style="stroke-width:.187465"><path d="m0 0-5.093 2.476.42.864L.42.864Zm1.04 2.14-5.093 2.476.442.909-1.465.712-2.103-4.325 8.024-3.9 2.102 4.324-1.465.712z" style="fill:#fff;fill-opacity:1;fill-rule:nonzero;stroke:none;stroke-width:.187465" transform="matrix(1.88184 0 0 -1.88184 96.187 277.24)"/></g><g style="stroke-width:.187465"><path d="m0 0-1.157-.276-1.033 4.331-1.524-.364 1.732-7.258-3.71-1.453-1.448 6.068 3.174.758-.346 1.452-4.783-1.141 2.158-9.041a.3.3 0 0 1 .403-.21l4.941 1.935.571-2.392 1.524.363-1.311 5.497 1.156.276 1.312-5.497 1.549.37L.512 4.712l-1.548-.369Z" style="fill:#fff;fill-opacity:1;fill-rule:nonzero;stroke:none;stroke-width:.187465" transform="matrix(1.88184 0 0 -1.88184 185.955 272.26)"/></g><g style="stroke-width:.187465"><path d="m0 0-4.86 7.199a.3.3 0 0 1-.439.067l-6.917-5.542.935-1.167 5.768 4.621 4.204-6.227-.901-.721L-4.342.892-5.633-.142-3.5-2.804l-.954-.764-2.133 2.662-1.29-1.034 2.133-2.662-1.473-1.18.934-1.165L1.846-.434.913.731z" style="fill:#fff;fill-opacity:1;fill-rule:nonzero;stroke:none;stroke-width:.187465" transform="matrix(1.88184 0 0 -1.88184 241.422 251.506)"/></g><g style="stroke-width:.187465"><path d="m0 0-1.459-.752 3.173-6.153 1.459.752-1.274 2.471 1.406.725-.686 1.33-1.406-.726z" style="fill:#fff;fill-opacity:1;fill-rule:nonzero;stroke:none;stroke-width:.187465" transform="matrix(1.88184 0 0 -1.88184 210.663 252.518)"/></g><g style="stroke-width:.187465"><path d="m0 0 6.503 3.353L7.798.843l1.458.752-1.978 3.838-7.962-4.106Z" style="fill:#fff;fill-opacity:1;fill-rule:nonzero;stroke:none;stroke-width:.187465" transform="matrix(1.88184 0 0 -1.88184 203.247 274.92)"/></g><g style="stroke-width:.187465"><path d="M0 0a1.26 1.26 0 1 0-1.155 2.24A1.26 1.26 0 0 0 0 0m.782 5.707-2.247-1.159-.588 1.14-1.562-.806.587-1.139-2.233-1.152.685-1.329 1.174.605A2.9 2.9 0 0 1-3.18-.222 2.915 2.915 0 1 1 2.001 2.45 2.9 2.9 0 0 1 .428 3.842l1.039.536z" style="fill:#fff;fill-opacity:1;fill-rule:nonzero;stroke:none;stroke-width:.187465" transform="matrix(1.88184 0 0 -1.88184 204.908 266.064)"/></g><g style="stroke-width:.187465"><path d="M0 0a.3.3 0 0 1-.019.45l-6.919 5.514-.932-1.17L-2.159.242l-2.063-1.957-5.89 4.694-.931-1.168 3.422-2.727-.744-.933L-11.3.49l-.923-1.157 5.729-4.566-1.769-2.219 1.294-1.03 2.691 3.376-2.794 2.226.744.934 3.431-2.735.931 1.168-.944.752z" style="fill:#fff;fill-opacity:1;fill-rule:nonzero;stroke:none;stroke-width:.187465" transform="matrix(1.88184 0 0 -1.88184 81.691 248.95)"/></g><g style="stroke-width:.187465"><path d="M0 0a.3.3 0 0 1-.295.34h-8.848v-1.496h7.304l-.394-2.817h-7.532v-1.493h4.376v-1.193h-3.754V-8.14h7.326v-2.837h1.654v4.318h-3.573v1.193H.652v1.493H-.555z" style="fill:#fff;fill-opacity:1;fill-rule:nonzero;stroke:none;stroke-width:.187465" transform="matrix(1.88184 0 0 -1.88184 158.862 270.029)"/></g><g style="stroke-width:.187465"><path d="m0 0-1.606.371-.337-1.457 1.606-.371-.205-.888-1.606.371-.337-1.457 1.606-.371-.267-1.159 1.611-.372L1.857.691l-1.611.372z" style="fill:#fff;fill-opacity:1;fill-rule:nonzero;stroke:none;stroke-width:.187465" transform="matrix(1.88184 0 0 -1.88184 127.978 268.98)"/></g><g style="stroke-width:.187465"><path d="M0 0a1.266 1.266 0 1 0 .57 2.466A1.266 1.266 0 0 0 0 0m.945 4.081A2.924 2.924 0 1 1-.372-1.616 2.924 2.924 0 0 1 .945 4.08" style="fill:#fff;fill-opacity:1;fill-rule:nonzero;stroke:none;stroke-width:.187465" transform="matrix(1.88184 0 0 -1.88184 120.922 285.163)"/></g><g style="stroke-width:.187465"><path d="m0 0 1.634-.378 1.917 4.99a.304.304 0 0 1-.215.405l-5.532 1.278-.337-1.457L1.5 3.906Z" style="fill:#fff;fill-opacity:1;fill-rule:nonzero;stroke:none;stroke-width:.187465" transform="matrix(1.88184 0 0 -1.88184 117.57 275.904)"/></g></g></svg>